<svg xmlns="http://www.w3.org/2000/svg" viewBox="0 0 40 40" fill="none">
  <!-- Book spine / audio bars hybrid -->
  <path d="M12 8v20c0 1 1 2 2 2h1V10c0-1-1-2-2-2h-1z" fill="#1a6b5a"/>
  <path d="M17 6v24c0 .5.5 1 1 1s1-.5 1-1V6c0-.5-.5-1-1-1s-1 .5-1 1z" fill="#1a6b5a"/>
  <path d="M21 4v28c0 .5.5 1 1 1s1-.5 1-1V4c0-.5-.5-1-1-1s-1 .5-1 1z" fill="#1a6b5a"/>
  <path d="M25 6v24c0 .5.5 1 1 1s1-.5 1-1V6c0-.5-.5-1-1-1s-1 .5-1 1z" fill="#1a6b5a"/>
  <path d="M29 8v20c0 1-1 2-2 2h-1V10c0-1 1-2 2-2h1z" fill="#1a6b5a"/>
  <!-- Book page curves at bottom -->
  <path d="M12 28c0 2 4 4 8 4s8-2 8-4" stroke="#1a6b5a" stroke-width="1.5" fill="none" stroke-linecap="round"/>
</svg>
